PathFileType	4	(X/Y/Z)	C:\Users\°ÂÌØÂü\Desktop\20210112\bx_n_5_1802-Unnamed.trc
DataRate	CameraRate	NumFrames	NumMarkers	Units	OrigDataRate	OrigDataStartFrame	OrigNumFrames
50.00	50.00	       7	0	mm	50.00	197	       523
Frame#	Time	
		

197	3.920	-427.36310	104.81278	1541.08545	-579.24768	-49.92210	527.48590	-570.52997	100.56615	1051.77478	-758.66919	228.10902	888.97034	-652.64825	218.06288	771.67181	-655.59033	-27.40851	768.25793	-515.11023	-65.83526	1246.74670	-521.67279	219.81590	483.15234	-668.58020	282.28378	652.71265	-704.00317	76.56493	209.12123	-629.11548	265.67407	473.69153	-517.87897	-72.63322	142.99187	-547.97888	-34.40101	161.09995	-786.96936	48.11219	179.45068	-701.06293	148.91768	206.26457	-595.55554	24.54751	166.53426	-673.85986	172.66290	152.59657	-789.98566	171.70769	189.77838	-757.66119	223.61168	207.71057	-590.47284	218.85089	172.52020	-882.74097	296.19449	144.62102	-555.28033	258.19604	163.45451	-661.18463	297.64612	158.73465	-625.71967	306.00369	158.98865	-528.35992	304.02850	146.18086							-645.49896	-52.99698	465.58273	-747.56189	-11.86010	208.02223	-875.85034	-78.68372	141.27127	-769.96375	-84.93954	756.54437	-691.28552	-78.22926	669.96460	-966.44366	93.79839	895.48053	-588.50226	-52.60211	568.39240	-669.97681	55.08644	153.18852	-570.95404	262.40594	530.99524	-610.97296	-78.96893	154.83597	-649.27441	-67.85574	162.18529	-598.13647	261.30032	573.42065	-776.99524	283.26581	738.84076													-533.46143	279.13733	1248.80200	
198	3.940	-433.92026	104.50322	1557.26721	-581.37677	-50.79863	529.15039	-570.10779	100.34921	1065.77722	-755.11957	227.27754	897.93256	-649.43927	218.06662	775.38281	-653.09375	-28.26449	771.64056	-518.43353	-66.87390	1261.64111	-524.03070	221.31700	485.49866	-668.54877	281.65421	656.77490	-704.36597	75.98385	209.85318	-631.46527	265.21555	474.90552	-518.02704	-72.74885	142.82463	-548.11823	-34.49812	161.18422	-786.93347	48.07408	179.35544	-701.51794	148.89957	206.53291	-595.59705	24.42566	166.66937	-673.49573	172.48480	152.81139	-790.23352	171.97423	189.84117	-757.95911	223.86861	207.59573	-590.55225	218.91933	172.53442	-882.75500	296.19330	144.68773	-555.43585	258.29645	163.41788	-661.07709	297.55951	158.52441	-625.94855	306.22488	159.04861	-528.26770	303.91068	146.26019							-647.79437	-53.88561	466.57117	-747.72223	-12.47087	208.32294	-875.85522	-78.73365	141.22168	-767.40723	-85.38381	763.02802	-690.78314	-79.15123	674.26880	-962.69427	93.37463	903.70648	-590.39551	-52.60193	569.96271	-669.92767	54.36556	153.41031	-573.35852	262.80426	532.54840	-610.99591	-79.02596	154.89200	-649.34564	-68.16474	162.21561	-600.20459	260.84442	575.67633																-536.82605	279.07468	1263.13037	
199	3.960	-440.77649	103.99775	1573.22351	-584.04700	-51.21011	530.34583	-570.02423	100.33112	1080.33374	-751.38385	226.90260	907.52594	-646.14099	217.64597	779.42267	-650.37817	-29.23631	774.93091	-521.72614	-67.47131	1276.17261	-526.20715	219.39392	485.90488	-668.63824	281.22571	660.71503	-703.89136	75.27731	210.23851	-633.58191	264.91367	475.76089	-517.84668	-72.83995	143.21233	-548.10614	-34.59786	161.07004	-786.82227	48.05086	179.28389	-701.48615	148.81201	206.73669	-595.49841	24.25136	166.83054	-674.15326	173.23097	152.27110	-790.29980	171.93474	189.76877	-758.73364	224.41893	207.73135	-590.55225	218.91933	172.53442	-882.68109	296.13245	144.68404	-555.37335	258.19604	163.28259	-661.35693	297.57559	158.64949	-625.91058	306.27438	159.07195	-528.23962	304.12503	146.30989	-771.44574	282.86899	752.59094				-649.80286	-54.11097	467.32565	-747.43140	-12.56984	208.57843	-875.87097	-78.64214	141.18979	-764.63916	-86.05097	769.42456	-690.54614	-79.78409	678.92584	-958.14319	92.53578	911.84460	-592.94946	-53.34607	571.67670	-669.26819	55.03776	153.95140	-575.52899	262.38254	534.25079	-610.82104	-79.15404	154.77867	-649.75739	-68.41508	161.96153	-601.65143	260.09021	577.86780																-540.02252	279.33774	1277.85217	
200	3.980	-447.82056	103.64280	1589.04175	-586.68054	-51.23952	531.42938	-569.66132	99.95963	1094.40015	-747.28076	226.55586	917.45013	-642.86823	217.42569	783.13312	-647.83112	-29.62374	778.20953	-525.80115	-68.57704	1290.82043	-528.81763	219.35019	487.65775	-668.31580	280.85663	665.21771	-703.57654	74.93726	210.31725	-635.78662	265.00656	477.05289	-517.94427	-72.83002	143.12292	-547.97760	-34.70542	161.17931	-786.74750	48.00018	179.56908	-702.20251	149.05814	206.54103	-595.49628	23.86630	166.89769	-673.53650	173.13066	152.65939	-790.33600	171.88443	189.63997	-758.88477	224.39308	207.77493	-590.74878	219.08626	172.59355	-882.73395	296.14185	144.61118	-555.32941	258.30402	163.40372	-661.40576	297.84613	158.57225	-625.64740	306.40179	159.13496	-528.20984	304.20206	146.31906	-769.17908	281.99307	759.50836	-749.60889	-13.72181	921.14514	-652.04181	-54.05796	468.06824	-747.92578	-12.93384	208.75464	-875.97729	-78.46404	140.94899	-762.29138	-86.40897	775.65289	-690.41010	-80.11931	682.66693	-954.30188	91.85053	920.08575	-594.46454	-53.40683	573.32312	-669.15625	54.86639	154.10268	-577.40875	262.62863	536.09552	-610.80377	-79.08865	154.56960	-649.95355	-68.67071	161.88033	-603.42163	259.50906	580.26654																-543.56561	279.22998	1292.40149	
201	4.000	-454.73822	102.88892	1605.12769	-589.15369	-51.14905	532.98132	-569.36157	99.24474	1108.72534	-743.05273	226.05876	926.82343	-639.40033	216.97998	786.70776	-644.90680	-30.13075	781.26263	-529.18475	-69.67722	1305.90356	-531.55182	218.08803	488.18668	-667.83539	280.22546	669.37665	-703.57654	74.93726	210.31725	-638.15320	264.20688	478.41183	-517.84479	-72.92993	143.08044	-548.10394	-34.60055	161.02560	-786.46832	48.13085	179.80171	-701.59698	149.04741	206.91190	-595.52692	23.83162	167.01175	-674.00977	173.37448	152.39185	-790.33600	171.88443	189.63997	-758.88477	224.39308	207.77493	-590.53534	219.13467	172.65410	-883.02533	296.12839	144.90015	-555.32941	258.30402	163.40372	-661.35693	297.57559	158.64949	-625.73315	306.49127	159.22339	-528.16870	304.17886	146.32680	-765.74237	281.24124	766.18127	-745.13123	-13.54509	929.65381	-654.72601	-54.19144	469.11652	-748.04108	-13.08853	209.00243	-876.06281	-78.54323	141.10315	-759.38916	-87.04133	781.31970	-689.73370	-80.25790	686.71002	-950.38617	91.55818	927.51068	-596.97992	-53.70652	575.19342	-669.50171	54.50069	154.20818	-580.13525	262.21704	538.11444	-610.69214	-79.16454	154.77454	-649.96539	-68.63714	161.73137	-605.61938	258.91827	582.65881																-547.17261	279.02600	1307.25403	
202	4.020	-462.11179	102.58882	1620.60144	-592.02081	-50.75620	534.31897	-568.79962	98.64031	1122.90002	-738.67065	225.20490	936.11755	-636.36877	216.46510	790.24908	-642.29944	-30.72537	784.43842	-532.63287	-70.28600	1320.19470	-533.89856	217.90749	490.40079	-667.47528	278.81821	672.89642	-703.77795	74.42847	209.96730	-640.87451	263.24460	479.23453	-517.94427	-72.83002	143.12292	-548.04926	-34.63245	161.08325	-786.65863	47.90255	179.31856	-701.41870	149.11656	207.22742	-595.42181	23.73828	167.09465	-673.93958	173.27832	152.71642	-790.24670	172.05453	189.57118	-758.95313	224.37750	207.53056	-590.73529	219.28642	172.61839	-882.55640	296.06802	144.49452	-555.32941	258.30402	163.40372	-661.56708	297.71005	158.47493	-625.61292	306.44504	159.15714	-528.31592	304.29889	146.31511	-762.85498	280.55847	772.59186	-740.70123	-15.34187	938.47516	-657.20276	-54.06791	470.04175	-748.20990	-13.15746	208.98044	-876.42151	-78.39537	141.13197	-756.91040	-87.19548	787.24701	-689.14056	-79.77117	690.34882	-946.03192	91.21445	935.68787	-599.43744	-53.18715	576.82501	-669.35815	54.40860	154.30206	-583.07990	260.17111	539.20728	-610.61896	-79.16706	154.89113	-650.06714	-68.82649	161.66138	-607.59229	258.91165	585.76947																-550.51141	278.29449	1320.87280	
203	4.040	-469.47009	102.15746	1636.05066	-595.24957	-50.71706	535.98004	-568.40851	98.27441	1136.97131	-734.40137	224.54947	945.22913	-632.80078	215.63971	794.00580	-639.54724	-30.34755	787.43231	-536.39630	-71.97348	1335.13245	-536.94232	217.14273	492.09427	-667.19128	278.32767	677.13879	-704.02185	74.28013	210.08788	-643.00385	262.78577	480.41800	-517.81128	-72.52596	142.98424	-548.18549	-34.73984	161.11981	-786.53955	48.04884	179.20212	-701.70471	149.30293	207.37971	-595.72107	23.63506	167.01358	-673.57733	173.30396	152.94798	-790.35724	172.04292	189.41510	-759.26105	224.41634	207.64108	-590.82037	219.45879	172.72514	-882.54730	296.17606	144.64073	-555.32941	258.30402	163.40372	-661.48407	297.72339	158.53181	-625.63391	306.50037	159.17915	-528.23962	304.12503	146.30989	-759.90216	279.78586	778.99945	-736.02954	-16.10107	947.13165	-659.75244	-53.83078	470.99652	-748.31964	-13.28958	208.83153	-875.85034	-78.68372	141.27127	-753.94281	-87.49632	793.19000	-689.11890	-79.55698	694.30774	-941.44092	90.96468	943.88251	-601.72913	-52.47783	578.72174	-669.24548	54.02440	154.30196	-586.01459	258.93781	540.57135	-610.76129	-78.98557	154.96301	-649.99658	-68.83912	161.57037	-609.66693	257.39673	587.96741																-553.85455	278.40811	1335.12842	
